<svg width="25" height="24" viewBox="0 0 25 24" fill="none" xmlns="http://www.w3.org/2000/svg">
<path d="M11 19.9V4.1C11 2.6 10.36 2 8.77 2H4.73C3.14 2 2.5 2.6 2.5 4.1V19.9C2.5 21.4 3.14 22 4.73 22H8.77C10.36 22 11 21.4 11 19.9Z" stroke="#292D32" stroke-width="1.5" stroke-linecap="round" stroke-linejoin="round"/>
<path d="M22.5 10.9V4.1C22.5 2.6 21.86 2 20.27 2H16.23C14.64 2 14 2.6 14 4.1V10.9C14 12.4 14.64 13 16.23 13H20.27C21.86 13 22.5 12.4 22.5 10.9Z" stroke="#292D32" stroke-width="1.5" stroke-linecap="round" stroke-linejoin="round"/>
<path d="M22.5 19.9V18.1C22.5 16.6 21.86 16 20.27 16H16.23C14.64 16 14 16.6 14 18.1V19.9C14 21.4 14.64 22 16.23 22H20.27C21.86 22 22.5 21.4 22.5 19.9Z" stroke="#292D32" stroke-width="1.5" stroke-linecap="round" stroke-linejoin="round"/>
</svg>
