<svg width="54" height="19" viewBox="0 0 54 19" fill="none" xmlns="http://www.w3.org/2000/svg">
<path d="M4.496 12.156V18H0.44V0.516H6.608C7.84 0.516 8.896 0.664 9.776 0.959999C10.664 1.248 11.392 1.648 11.96 2.16C12.536 2.672 12.96 3.276 13.232 3.972C13.504 4.668 13.64 5.42 13.64 6.228C13.64 7.1 13.5 7.9 13.22 8.628C12.94 9.356 12.512 9.98 11.936 10.5C11.36 11.02 10.628 11.428 9.74 11.724C8.86 12.012 7.816 12.156 6.608 12.156H4.496ZM4.496 9.096H6.608C7.664 9.096 8.424 8.844 8.888 8.34C9.352 7.836 9.584 7.132 9.584 6.228C9.584 5.828 9.524 5.464 9.404 5.136C9.284 4.808 9.1 4.528 8.852 4.296C8.612 4.056 8.304 3.872 7.928 3.744C7.56 3.616 7.12 3.552 6.608 3.552H4.496V9.096ZM23.5623 18C23.2103 18 22.9423 17.952 22.7583 17.856C22.5823 17.76 22.4343 17.56 22.3143 17.256L22.0503 16.572C21.7383 16.836 21.4383 17.068 21.1503 17.268C20.8623 17.468 20.5623 17.64 20.2503 17.784C19.9463 17.92 19.6183 18.02 19.2663 18.084C18.9223 18.156 18.5383 18.192 18.1143 18.192C17.5463 18.192 17.0303 18.12 16.5663 17.976C16.1023 17.824 15.7063 17.604 15.3783 17.316C15.0583 17.028 14.8103 16.672 14.6343 16.248C14.4583 15.816 14.3703 15.32 14.3703 14.76C14.3703 14.32 14.4823 13.868 14.7063 13.404C14.9303 12.94 15.3183 12.52 15.8703 12.144C16.4223 11.76 17.1663 11.44 18.1023 11.184C19.0383 10.928 20.2183 10.784 21.6423 10.752V10.224C21.6423 9.496 21.4903 8.972 21.1863 8.652C20.8903 8.324 20.4663 8.16 19.9143 8.16C19.4743 8.16 19.1143 8.208 18.8343 8.304C18.5543 8.4 18.3023 8.508 18.0783 8.628C17.8623 8.748 17.6503 8.856 17.4423 8.952C17.2343 9.048 16.9863 9.096 16.6983 9.096C16.4423 9.096 16.2223 9.036 16.0383 8.916C15.8623 8.788 15.7223 8.632 15.6183 8.448L14.9463 7.284C15.6983 6.62 16.5303 6.128 17.4423 5.808C18.3623 5.48 19.3463 5.316 20.3943 5.316C21.1463 5.316 21.8223 5.44 22.4223 5.688C23.0303 5.928 23.5423 6.268 23.9583 6.708C24.3823 7.14 24.7063 7.656 24.9303 8.256C25.1543 8.856 25.2663 9.512 25.2663 10.224V18H23.5623ZM19.2903 15.732C19.7703 15.732 20.1903 15.648 20.5503 15.48C20.9103 15.312 21.2743 15.04 21.6423 14.664V12.936C20.8983 12.968 20.2863 13.032 19.8063 13.128C19.3263 13.224 18.9463 13.344 18.6663 13.488C18.3863 13.632 18.1903 13.796 18.0783 13.98C17.9743 14.164 17.9223 14.364 17.9223 14.58C17.9223 15.004 18.0383 15.304 18.2703 15.48C18.5023 15.648 18.8423 15.732 19.2903 15.732ZM46.8796 5.364C47.8236 5.364 48.6836 5.512 49.4596 5.808C50.2356 6.104 50.8996 6.528 51.4516 7.08C52.0116 7.632 52.4436 8.304 52.7476 9.096C53.0596 9.88 53.2156 10.764 53.2156 11.748C53.2156 12.74 53.0596 13.636 52.7476 14.436C52.4436 15.228 52.0116 15.904 51.4516 16.464C50.8996 17.016 50.2356 17.444 49.4596 17.748C48.6836 18.044 47.8236 18.192 46.8796 18.192C45.9276 18.192 45.0596 18.044 44.2756 17.748C43.4996 17.444 42.8276 17.016 42.2596 16.464C41.6996 15.904 41.2636 15.228 40.9516 14.436C40.6476 13.636 40.4956 12.74 40.4956 11.748C40.4956 10.764 40.6476 9.88 40.9516 9.096C41.2636 8.304 41.6996 7.632 42.2596 7.08C42.8276 6.528 43.4996 6.104 44.2756 5.808C45.0596 5.512 45.9276 5.364 46.8796 5.364ZM46.8796 15.432C47.7356 15.432 48.3636 15.132 48.7636 14.532C49.1716 13.924 49.3756 13.004 49.3756 11.772C49.3756 10.54 49.1716 9.624 48.7636 9.024C48.3636 8.424 47.7356 8.124 46.8796 8.124C45.9996 8.124 45.3556 8.424 44.9476 9.024C44.5396 9.624 44.3356 10.54 44.3356 11.772C44.3356 13.004 44.5396 13.924 44.9476 14.532C45.3556 15.132 45.9996 15.432 46.8796 15.432Z" fill="#292D32"/>
<path d="M30.7188 11.568L26.7108 5.556H30.2868C30.5508 5.556 30.7428 5.592 30.8628 5.664C30.9908 5.728 31.1028 5.84 31.1988 6L33.4188 9.684C33.4668 9.54 33.5268 9.4 33.5988 9.264C33.6708 9.128 33.7508 8.984 33.8388 8.832L35.4228 6.06C35.5268 5.876 35.6428 5.748 35.7708 5.676C35.8988 5.596 36.0548 5.556 36.2388 5.556H39.6468L35.6388 11.4L39.8148 18H36.2388C35.9748 18 35.7628 17.936 35.6028 17.808C35.4428 17.68 35.3108 17.528 35.2068 17.352L32.9868 13.536C32.9468 13.672 32.8988 13.8 32.8428 13.92C32.7868 14.04 32.7268 14.152 32.6628 14.256L30.8388 17.352C30.7428 17.52 30.6148 17.672 30.4548 17.808C30.2948 17.936 30.0948 18 29.8548 18H26.5428L30.7188 11.568Z" fill="#F53F85"/>
</svg>
